<svg width="12" height="11" viewBox="0 0 12 11" fill="none" xmlns="http://www.w3.org/2000/svg">
<path d="M10.2 0C9.2076 0 8.4 0.8076 8.4 1.8C8.4 2.07705 8.46813 2.3364 8.58047 2.57109L6.35156 4.8H3.48984C3.24128 4.10325 2.58097 3.6 1.8 3.6C0.8076 3.6 0 4.4076 0 5.4C0 6.3924 0.8076 7.2 1.8 7.2C2.58097 7.2 3.24128 6.69675 3.48984 6H6.35156L8.58047 8.22891C8.46813 8.4636 8.4 8.72294 8.4 9C8.4 9.9924 9.2076 10.8 10.2 10.8C11.1924 10.8 12 9.9924 12 9C12 8.0076 11.1924 7.2 10.2 7.2C9.92295 7.2 9.6636 7.26813 9.42891 7.38047L7.44844 5.4L9.42891 3.41953C9.6636 3.53187 9.92295 3.6 10.2 3.6C11.1924 3.6 12 2.7924 12 1.8C12 0.8076 11.1924 0 10.2 0Z" fill="black"/>
</svg>
