<svg width="12" height="11" viewBox="0 0 12 11" fill="none" xmlns="http://www.w3.org/2000/svg">
<path d="M10.2 0C9.21299 0 8.4 0.812994 8.4 1.8C8.4 2.07591 8.46854 2.33516 8.58164 2.56992L6.35156 4.8H3.4875C3.23708 4.1056 2.5759 3.6 1.8 3.6C0.812994 3.6 0 4.41299 0 5.4C0 6.38701 0.812994 7.2 1.8 7.2C2.5759 7.2 3.23708 6.6944 3.4875 6H6.35156L8.58164 8.23008C8.46854 8.46484 8.4 8.72408 8.4 9C8.4 9.987 9.21299 10.8 10.2 10.8C11.187 10.8 12 9.987 12 9C12 8.01299 11.187 7.2 10.2 7.2C9.92409 7.2 9.66484 7.26853 9.43008 7.38164L7.44844 5.4L9.43008 3.41836C9.66484 3.53147 9.92409 3.6 10.2 3.6C11.187 3.6 12 2.78701 12 1.8C12 0.812994 11.187 0 10.2 0ZM10.2 1.2C10.5385 1.2 10.8 1.46152 10.8 1.8C10.8 2.13848 10.5385 2.4 10.2 2.4C9.86152 2.4 9.6 2.13848 9.6 1.8C9.6 1.46152 9.86152 1.2 10.2 1.2ZM1.8 4.8C2.13848 4.8 2.4 5.06152 2.4 5.4C2.4 5.73848 2.13848 6 1.8 6C1.46152 6 1.2 5.73848 1.2 5.4C1.2 5.06152 1.46152 4.8 1.8 4.8ZM10.2 8.4C10.5385 8.4 10.8 8.66152 10.8 9C10.8 9.33848 10.5385 9.6 10.2 9.6C9.86152 9.6 9.6 9.33848 9.6 9C9.6 8.66152 9.86152 8.4 10.2 8.4Z" fill="black"/>
</svg>
